# xmcd CD database file
#
# Track frame offsets:
#	150
#	23727
#	33347
#	51892
#	70552
#	85915
#	105862
#	140437
#	156034
#	178716
#
# Disc length: 2736 seconds
#
# Revision: 0
# Processed by: cddbd v1.5.2PL0 Copyright (c) Steve Scherf et al.
# Submitted via: CDex 1.70beta2
#
DISCID=720aae0a
DTITLE=Группа, где всем интересно - Коллекция простых вещей
DYEAR=2012
DGENRE=Blues
TTITLE0=Осенний сон
TTITLE1=Просто поверь мне
TTITLE2=Моё одиночество
TTITLE3=Серый дождь
TTITLE4=Сад камней
TTITLE5=Свет последней надежды
TTITLE6=Ответ
TTITLE7=Поезд
TTITLE8=Отзвук дороги
TTITLE9=Любовь
EXTD=YEAR: 2012
EXTT0=
EXTT1=
EXTT2=
EXTT3=
EXTT4=
EXTT5=
EXTT6=
EXTT7=
EXTT8=
EXTT9=
PLAYORDER=
